<svg width="60" height="14" viewBox="0 0 60 14" fill="none" xmlns="http://www.w3.org/2000/svg">
<path d="M1.924 13.977V12.898H6.63C6.76867 12.898 6.88567 12.846 6.981 12.742C7.085 12.6467 7.137 12.5297 7.137 12.391V11H2.106C1.82 11 1.55567 10.9307 1.313 10.792C1.079 10.6447 0.888333 10.454 0.741 10.22C0.602333 9.97733 0.533 9.713 0.533 9.427V5.033C0.533 4.747 0.602333 4.487 0.741 4.253C0.888333 4.01033 1.079 3.81967 1.313 3.681C1.55567 3.53367 1.82 3.46 2.106 3.46H6.63C6.92467 3.46 7.189 3.53367 7.423 3.681C7.66567 3.81967 7.85633 4.01033 7.995 4.253C8.13367 4.487 8.203 4.747 8.203 5.033V12.391C8.203 12.6857 8.13367 12.95 7.995 13.184C7.85633 13.4267 7.66567 13.6173 7.423 13.756C7.189 13.9033 6.92467 13.977 6.63 13.977H1.924ZM2.106 9.934H6.63C6.76867 9.934 6.88567 9.88633 6.981 9.791C7.085 9.687 7.137 9.56567 7.137 9.427V5.033C7.137 4.89433 7.085 4.77733 6.981 4.682C6.88567 4.578 6.76867 4.526 6.63 4.526H2.106C1.96733 4.526 1.846 4.578 1.742 4.682C1.64667 4.77733 1.599 4.89433 1.599 5.033V9.427C1.599 9.56567 1.64667 9.687 1.742 9.791C1.846 9.88633 1.96733 9.934 2.106 9.934ZM10.811 13.99V12.911H15.517C15.6557 12.911 15.7727 12.859 15.868 12.755C15.972 12.6597 16.024 12.5427 16.024 12.404V11H10.993C10.707 11 10.4427 10.9307 10.2 10.792C9.96602 10.6447 9.77536 10.454 9.62802 10.22C9.48936 9.97733 9.42002 9.713 9.42002 9.427V3.486H10.486V9.427C10.486 9.56567 10.5337 9.687 10.629 9.791C10.733 9.88633 10.8544 9.934 10.993 9.934H15.517C15.6557 9.934 15.7727 9.88633 15.868 9.791C15.972 9.687 16.024 9.56567 16.024 9.427V3.486H17.09V12.404C17.09 12.6987 17.0207 12.963 16.882 13.197C16.7434 13.4397 16.5527 13.6303 16.31 13.769C16.076 13.9163 15.8117 13.99 15.517 13.99H10.811ZM19.6974 13.977V12.898H24.4034C24.5421 12.898 24.6591 12.846 24.7544 12.742C24.8584 12.6467 24.9104 12.5297 24.9104 12.391V11H19.8794C19.5934 11 19.3291 10.9307 19.0864 10.792C18.8524 10.6447 18.6618 10.454 18.5144 10.22C18.3758 9.97733 18.3064 9.713 18.3064 9.427V5.033C18.3064 4.747 18.3758 4.487 18.5144 4.253C18.6618 4.01033 18.8524 3.81967 19.0864 3.681C19.3291 3.53367 19.5934 3.46 19.8794 3.46H24.4034C24.6981 3.46 24.9624 3.53367 25.1964 3.681C25.4391 3.81967 25.6298 4.01033 25.7684 4.253C25.9071 4.487 25.9764 4.747 25.9764 5.033V12.391C25.9764 12.6857 25.9071 12.95 25.7684 13.184C25.6298 13.4267 25.4391 13.6173 25.1964 13.756C24.9624 13.9033 24.6981 13.977 24.4034 13.977H19.6974ZM19.8794 9.934H24.4034C24.5421 9.934 24.6591 9.88633 24.7544 9.791C24.8584 9.687 24.9104 9.56567 24.9104 9.427V5.033C24.9104 4.89433 24.8584 4.77733 24.7544 4.682C24.6591 4.578 24.5421 4.526 24.4034 4.526H19.8794C19.7408 4.526 19.6194 4.578 19.5154 4.682C19.4201 4.77733 19.3724 4.89433 19.3724 5.033V9.427C19.3724 9.56567 19.4201 9.687 19.5154 9.791C19.6194 9.88633 19.7408 9.934 19.8794 9.934ZM28.5845 13.99V12.911H33.2905C33.4291 12.911 33.5461 12.859 33.6415 12.755C33.7455 12.6597 33.7975 12.5427 33.7975 12.404V11H28.7665C28.4805 11 28.2161 10.9307 27.9735 10.792C27.7395 10.6447 27.5488 10.454 27.4015 10.22C27.2628 9.97733 27.1935 9.713 27.1935 9.427V3.486H28.2595V9.427C28.2595 9.56567 28.3071 9.687 28.4025 9.791C28.5065 9.88633 28.6278 9.934 28.7665 9.934H33.2905C33.4291 9.934 33.5461 9.88633 33.6415 9.791C33.7455 9.687 33.7975 9.56567 33.7975 9.427V3.486H34.8635V12.404C34.8635 12.6987 34.7941 12.963 34.6555 13.197C34.5168 13.4397 34.3261 13.6303 34.0835 13.769C33.8495 13.9163 33.5851 13.99 33.2905 13.99H28.5845ZM36.2489 11V9.934H37.3149V11H36.2489ZM40.5761 11C40.2901 11 40.0258 10.9307 39.7831 10.792C39.5491 10.6447 39.3585 10.454 39.2111 10.22C39.0725 9.97733 39.0031 9.713 39.0031 9.427V0.989999H40.0691V9.427C40.0691 9.56567 40.1168 9.687 40.2121 9.791C40.3161 9.88633 40.4375 9.934 40.5761 9.934H41.8501V11H40.5761ZM44.359 11C44.073 11 43.8087 10.9307 43.566 10.792C43.332 10.6447 43.1414 10.454 42.994 10.22C42.8554 9.97733 42.786 9.713 42.786 9.427V5.033C42.786 4.747 42.8554 4.487 42.994 4.253C43.1414 4.01033 43.332 3.81967 43.566 3.681C43.8087 3.53367 44.073 3.46 44.359 3.46H48.883C49.1777 3.46 49.442 3.53367 49.676 3.681C49.9187 3.81967 50.1094 4.01033 50.248 4.253C50.3954 4.487 50.469 4.747 50.469 5.033V9.427C50.469 9.713 50.3954 9.97733 50.248 10.22C50.1094 10.454 49.9187 10.6447 49.676 10.792C49.442 10.9307 49.1777 11 48.883 11H44.359ZM44.359 9.934H48.883C49.0217 9.934 49.1387 9.88633 49.234 9.791C49.338 9.687 49.39 9.56567 49.39 9.427V5.033C49.39 4.89433 49.338 4.77733 49.234 4.682C49.1387 4.578 49.0217 4.526 48.883 4.526H44.359C44.2204 4.526 44.099 4.578 43.995 4.682C43.8997 4.77733 43.852 4.89433 43.852 5.033V9.427C43.852 9.56567 43.8997 9.687 43.995 9.791C44.099 9.88633 44.2204 9.934 44.359 9.934ZM53.048 13.977V12.898H57.754C57.8927 12.898 58.0097 12.846 58.105 12.742C58.209 12.6467 58.261 12.5297 58.261 12.391V11H53.23C52.944 11 52.6797 10.9307 52.437 10.792C52.203 10.6447 52.0124 10.454 51.865 10.22C51.7264 9.97733 51.657 9.713 51.657 9.427V5.033C51.657 4.747 51.7264 4.487 51.865 4.253C52.0124 4.01033 52.203 3.81967 52.437 3.681C52.6797 3.53367 52.944 3.46 53.23 3.46H57.754C58.0487 3.46 58.313 3.53367 58.547 3.681C58.7897 3.81967 58.9804 4.01033 59.119 4.253C59.2577 4.487 59.327 4.747 59.327 5.033V12.391C59.327 12.6857 59.2577 12.95 59.119 13.184C58.9804 13.4267 58.7897 13.6173 58.547 13.756C58.313 13.9033 58.0487 13.977 57.754 13.977H53.048ZM53.23 9.934H57.754C57.8927 9.934 58.0097 9.88633 58.105 9.791C58.209 9.687 58.261 9.56567 58.261 9.427V5.033C58.261 4.89433 58.209 4.77733 58.105 4.682C58.0097 4.578 57.8927 4.526 57.754 4.526H53.23C53.0914 4.526 52.97 4.578 52.866 4.682C52.7707 4.77733 52.723 4.89433 52.723 5.033V9.427C52.723 9.56567 52.7707 9.687 52.866 9.791C52.97 9.88633 53.0914 9.934 53.23 9.934Z" fill="black"/>
</svg>
